# xmcd
# Copyright (C) 1995-1998 Ti Kan
#
# Track frame offsets:
#       150
#       17869
#       42460
#       60513
#       76742
#       99779
#       128223
#       145041
#       163454
#       186902
#
# Disc length: 2763 seconds
#
# Revision: 0
# Processed by: cddbd v1.5.2PL0 Copyright (c) Steve Scherf et al.
# Submitted via: CD-Transfer v1.0
#
DISCID=800ac90a
DTITLE=Mad Puppet - Cube
DYEAR=00
DGENRE=
TTITLE0=Twilight
TTITLE1=Night Zone
TTITLE2=Out Of Sight
TTITLE3=Never Look Back
TTITLE4=Fever
TTITLE5=Final Curtain
TTITLE6=White Trash
TTITLE7=Newspeak
TTITLE8=Lakes Of Crystal Waters
TTITLE9=Bonnus
EXTD=
EXTT0=
EXTT1=
EXTT2=
EXTT3=
EXTT4=
EXTT5=
EXTT6=
EXTT7=
EXTT8=
EXTT9=
PLAYORDER=
